<svg xmlns="http://www.w3.org/2000/svg" xmlns:xlink="http://www.w3.org/1999/xlink" preserveAspectRatio="xMidYMid" width="59.97" height="60" viewBox="0 0 59.97 60">
  <defs>
    <style>
      .cls-1 {
        fill: #4680c2;
      }

      .cls-1, .cls-2 {
        fill-rule: evenodd;
      }

      .cls-2 {
        fill: #fff;
      }
    </style>
  </defs>
  <g>
    <path d="M29.985,-0.010 C46.551,-0.010 59.980,13.421 59.980,29.990 C59.980,46.558 46.551,59.990 29.985,59.990 C13.419,59.990 -0.010,46.558 -0.010,29.990 C-0.010,13.421 13.419,-0.010 29.985,-0.010 Z" class="cls-1"/>
    <path d="M46.358,23.104 C46.600,22.301 46.358,21.710 45.207,21.710 L41.398,21.710 C40.430,21.710 39.984,22.220 39.741,22.783 C39.741,22.783 37.805,27.481 35.061,30.533 C34.174,31.417 33.770,31.698 33.286,31.698 C33.044,31.698 32.694,31.417 32.694,30.614 L32.694,23.104 C32.694,22.140 32.412,21.710 31.605,21.710 L25.621,21.710 C25.016,21.710 24.652,22.158 24.652,22.582 C24.652,23.496 26.024,23.707 26.165,26.277 L26.165,31.859 C26.165,33.083 25.943,33.305 25.459,33.305 C24.168,33.305 21.027,28.585 19.165,23.184 C18.800,22.134 18.434,21.710 17.461,21.710 L13.652,21.710 C12.564,21.710 12.347,22.220 12.347,22.783 C12.347,23.786 13.638,28.766 18.358,35.353 C21.505,39.850 25.939,42.289 29.973,42.289 C32.394,42.289 32.694,41.747 32.694,40.814 L32.694,37.415 C32.694,36.332 32.923,36.116 33.690,36.116 C34.254,36.116 35.223,36.397 37.482,38.565 C40.064,41.136 40.490,42.289 41.942,42.289 L45.751,42.289 C46.839,42.289 47.383,41.747 47.069,40.679 C46.725,39.613 45.493,38.068 43.857,36.236 C42.969,35.192 41.637,34.068 41.234,33.505 C40.669,32.783 40.831,32.461 41.234,31.819 C41.234,31.819 45.874,25.313 46.358,23.104 " class="cls-2"/>
  </g>
</svg>
