<svg id="Группа_3" data-name="Группа 3" xmlns="http://www.w3.org/2000/svg" width="60" height="60" viewBox="0 0 60 60">
  <defs>
    <style>
      .cls-1 {
        fill: #31a7e1;
      }

      .cls-2 {
        fill: #fff;
        fill-rule: evenodd;
      }
    </style>
  </defs>
  <circle class="cls-1" cx="30" cy="30" r="30"/>
  <path id="Forma_1" data-name="Forma 1" class="cls-2" d="M4043.39,393.067A2.891,2.891,0,0,0,4041.1,392a4.035,4.035,0,0,0-1.82.471l-26.31,13.3a2.957,2.957,0,0,0,.31,5.668l3.36,1.283a5.92,5.92,0,0,0,2.12.369c0.12,0,.24-0.015.36-0.021a1.6,1.6,0,0,0-.15.16,3.509,3.509,0,0,0-.09,3.448c0.01,0.022.02,0.042,0.03,0.061,0.99,2.124,2.1,4.522,2.23,4.856a2.264,2.264,0,0,0,2.09,1.4c1.42,0,1.84-.659,4.16-4.3a3.625,3.625,0,0,0,.66-1.68c0.27,0.106.52,0.2,0.74,0.29l3.72,1.463c0.75,0.294,1.41.553,1.75,0.691a2.658,2.658,0,0,0,.34.163,2.292,2.292,0,0,0,.82.151,2.416,2.416,0,0,0,2.32-2.173c0.11-.376.26-0.895,0.42-1.467l5.68-20.13A3.162,3.162,0,0,0,4043.39,393.067Zm-17.87,24.481a36.483,36.483,0,0,1-2.29,3.309,0.013,0.013,0,0,1-.01-0.007c-0.21-.537-2.29-4.987-2.29-4.987-0.38-.892-0.31-1.656.35-1.656a1.46,1.46,0,0,1,.52.118l1.62,0.811a4.378,4.378,0,0,0,.89.455l0.08,0.03,0.15,0.075C4025.79,416.332,4026.19,416.563,4025.52,417.548Zm16.18-22.11-5.68,20.131c-0.32,1.135-.59,2.062-0.6,2.062a0.291,0.291,0,0,1-.01-0.028c0-.007-0.93-0.373-2.06-0.818l-3.72-1.464c-1.14-.442-2.99-1.157-4.13-1.58l-0.19-.072-0.7-.349a1.277,1.277,0,0,1-.05-2.063l11.53-11.907a1.132,1.132,0,0,0,.54-0.722,2.669,2.669,0,0,0-.77.483l-14.59,11.1a4.329,4.329,0,0,1-2.51.747,3.648,3.648,0,0,1-1.3-.218l-3.36-1.282c-1.14-.434-1.18-1.234-0.1-1.783l26.31-13.3a1.831,1.831,0,0,1,.79-0.224C4041.67,394.143,4041.93,394.62,4041.7,395.438Z" transform="translate(-3997.97 -377)"/>
</svg>
