<svg id="Группа_5" data-name="Группа 5" xmlns="http://www.w3.org/2000/svg" width="60" height="60" viewBox="0 0 60 60">
  <defs>
    <style>
      .cls-1 {
        fill: #2ad46a;
      }

      .cls-2 {
        fill: #fff;
        fill-rule: evenodd;
      }
    </style>
  </defs>
  <circle class="cls-1" cx="30" cy="30" r="30"/>
  <path id="Forma_1" data-name="Forma 1" class="cls-2" d="M3949,518.049a17.213,17.213,0,0,1-25.49,14.928L3914,536l3.1-9.148a16.907,16.907,0,0,1-2.46-8.8A17.181,17.181,0,0,1,3949,518.049Zm-17.18-14.334a14.407,14.407,0,0,0-14.45,14.334,14.177,14.177,0,0,0,2.75,8.4l-1.8,5.323,5.55-1.764A14.371,14.371,0,1,0,3931.82,503.715Zm8.67,18.261a2.052,2.052,0,0,0-.8-0.488c-0.42-.209-2.5-1.22-2.88-1.359a0.661,0.661,0,0,0-.95.209c-0.28.418-1.09,1.359-1.33,1.638a0.656,0.656,0,0,1-.92.105,11.569,11.569,0,0,1-3.38-2.074,12.874,12.874,0,0,1-2.35-2.894,0.612,0.612,0,0,1,.19-0.852c0.19-.188.42-0.488,0.63-0.732a2.844,2.844,0,0,0,.42-0.7,0.78,0.78,0,0,0-.03-0.732c-0.11-.209-0.95-2.266-1.3-3.1s-0.7-.7-0.95-0.7-0.53-.036-0.81-0.036a1.556,1.556,0,0,0-1.12.523,4.661,4.661,0,0,0-1.47,3.486,8.1,8.1,0,0,0,1.72,4.322c0.21,0.278,2.91,4.635,7.19,6.308s4.28,1.115,5.06,1.045a4.248,4.248,0,0,0,2.84-1.986A3.409,3.409,0,0,0,3940.49,521.976Z" transform="translate(-3901.97 -488)"/>
</svg>
