<svg id="Группа_4" data-name="Группа 4" xmlns="http://www.w3.org/2000/svg" width="60" height="60" viewBox="0 0 60 60">
  <defs>
    <style>
      .cls-1 {
        fill: #36c5ed;
      }

      .cls-2 {
        fill: #fff;
        fill-rule: evenodd;
      }
    </style>
  </defs>
  <circle class="cls-1" cx="30" cy="30" r="30"/>
  <path id="Forma_1" data-name="Forma 1" class="cls-2" d="M3851.54,518.5a15.812,15.812,0,0,0-1.26-6.232,15.712,15.712,0,0,0-8.55-8.546,15.753,15.753,0,0,0-6.23-1.264,16.8,16.8,0,0,0-3.42.365,8.53,8.53,0,0,0-5.33-1.823,8.746,8.746,0,0,0-8.75,8.75,8.552,8.552,0,0,0,1.82,5.332,17,17,0,0,0-.36,3.418,15.812,15.812,0,0,0,1.26,6.232,15.714,15.714,0,0,0,8.55,8.545,15.754,15.754,0,0,0,6.23,1.265,16.8,16.8,0,0,0,3.42-.365,8.741,8.741,0,0,0,12.26-12.259A16.973,16.973,0,0,0,3851.54,518.5Zm-7.56,6.8a5.921,5.921,0,0,1-2.02,2.131,10.281,10.281,0,0,1-2.79,1.218,11.9,11.9,0,0,1-3.19.422,13.8,13.8,0,0,1-6.63-1.493c-1.86-1-2.78-2.191-2.78-3.589a2.535,2.535,0,0,1,.58-1.709,2.136,2.136,0,0,1,1.72-.683,2.241,2.241,0,0,1,1.23.365,5.472,5.472,0,0,1,1.05.877c0.32,0.342.66,0.684,1.03,1.025a4.83,4.83,0,0,0,1.49.878,5.609,5.609,0,0,0,2.08.364,4.355,4.355,0,0,0,2.39-.581,1.7,1.7,0,0,0,.91-1.47,1.512,1.512,0,0,0-.72-1.367,11.28,11.28,0,0,0-2.56-.82l-3.32-.821a13.729,13.729,0,0,1-2.35-.74,7.735,7.735,0,0,1-1.82-1.105,4.264,4.264,0,0,1-1.28-1.721,6.237,6.237,0,0,1-.43-2.427,5.461,5.461,0,0,1,2.79-4.91,10.459,10.459,0,0,1,2.72-1.072,12.78,12.78,0,0,1,3.01-.353,16.04,16.04,0,0,1,4.15.524,8.81,8.81,0,0,1,3.23,1.538,2.9,2.9,0,0,1,1.28,2.268,2.561,2.561,0,0,1-.65,1.754,2.192,2.192,0,0,1-1.72.729,2.276,2.276,0,0,1-1.1-.273,4.581,4.581,0,0,1-.91-0.662c-0.27-.257-0.56-0.512-0.86-0.763a4.2,4.2,0,0,0-1.23-.649,5.253,5.253,0,0,0-1.76-.274c-2.19,0-3.28.586-3.28,1.755a1.378,1.378,0,0,0,.17.683,1.948,1.948,0,0,0,.38.479,2.15,2.15,0,0,0,.68.364,7.488,7.488,0,0,0,.8.263c0.21,0.053.55,0.132,1,.239l2.37,0.546c0.75,0.168,1.41.342,2,.525a12.948,12.948,0,0,1,1.88.774,7.226,7.226,0,0,1,1.66,1.117,4.9,4.9,0,0,1,1.1,1.561,4.793,4.793,0,0,1,.45,2.085A6.005,6.005,0,0,1,3843.98,525.3Z" transform="translate(-3806 -488)"/>
</svg>
